<svg width="16" height="18" viewBox="0 0 16 18" fill="none" xmlns="http://www.w3.org/2000/svg">
<mask id="mask0_1026_3284" style="mask-type:alpha" maskUnits="userSpaceOnUse" x="0" y="2" width="16" height="16">
<path d="M8.00033 17.3327C3.93366 17.3327 0.666992 14.066 0.666992 9.99935C0.666992 5.93268 3.93366 2.66602 8.00033 2.66602C12.067 2.66602 15.3337 5.93268 15.3337 9.99935C15.3337 14.066 12.067 17.3327 8.00033 17.3327ZM8.00033 3.99935C4.66699 3.99935 2.00033 6.66602 2.00033 9.99935C2.00033 13.3327 4.66699 15.9993 8.00033 15.9993C11.3337 15.9993 14.0003 13.3327 14.0003 9.99935C14.0003 6.66602 11.3337 3.99935 8.00033 3.99935Z" fill="#061938"/>
<path d="M8.00033 10.666C7.60033 10.666 7.33366 10.3993 7.33366 9.99935V7.33268C7.33366 6.93268 7.60033 6.66602 8.00033 6.66602C8.40033 6.66602 8.66699 6.93268 8.66699 7.33268V9.99935C8.66699 10.3993 8.40033 10.666 8.00033 10.666Z" fill="#061938"/>
<path d="M8.00033 13.3327C7.80032 13.3327 7.66699 13.266 7.53366 13.1327C7.40033 12.9993 7.33366 12.866 7.33366 12.666C7.33366 12.5993 7.33366 12.466 7.40033 12.3993C7.46699 12.3327 7.46699 12.266 7.53366 12.1993C7.73366 11.9993 8.00032 11.9327 8.26699 12.066C8.33366 12.066 8.33366 12.066 8.40033 12.1327C8.40033 12.1327 8.46699 12.1993 8.53366 12.1993C8.60033 12.266 8.66699 12.3327 8.66699 12.3993C8.66699 12.466 8.66699 12.5993 8.66699 12.666C8.66699 12.7327 8.66699 12.866 8.60032 12.9327C8.53366 12.9993 8.53366 13.066 8.46699 13.1327C8.33366 13.266 8.20033 13.3327 8.00033 13.3327Z" fill="#061938"/>
</mask>
<g mask="url(#mask0_1026_3284)">
<rect y="2" width="16" height="16" fill="#6B778C"/>
</g>
</svg>
