<svg width="24" height="24" viewBox="0 0 24 24" fill="none" xmlns="http://www.w3.org/2000/svg">
    <mask id="mask0_904_1819" style="mask-type:alpha" maskUnits="userSpaceOnUse" x="1" y="1" width="22" height="22">
        <path fill-rule="evenodd" clip-rule="evenodd" d="M12 1C5.92487 1 1 5.92487 1 12C1 18.0751 5.92487 23 12 23C18.0751 23 23 18.0751 23 12C23 5.92487 18.0751 1 12 1ZM17.3107 9.45718C17.7012 9.06666 17.7012 8.43349 17.3107 8.04297C16.9201 7.65244 16.287 7.65244 15.8965 8.04297L10.3965 13.8359L8.10356 11.543C7.71304 11.1524 7.07987 11.1524 6.68935 11.543C6.29882 11.9335 6.29882 12.5667 6.68935 12.9572L9.68935 15.9572C10.0799 16.3477 10.713 16.3477 11.1036 15.9572L17.3107 9.45718Z" fill="#061938"/>
    </mask>
    <g mask="url(#mask0_904_1819)">
        <rect width="24" height="24" fill="#36B37E"/>
    </g>
</svg>