<svg width="16" height="16" viewBox="0 0 16 16" fill="none" xmlns="http://www.w3.org/2000/svg">
    <mask id="mask0_904_1814" style="mask-type:alpha" maskUnits="userSpaceOnUse" x="3" y="3" width="10" height="10">
        <path fill-rule="evenodd" clip-rule="evenodd" d="M12.4716 3.52925C12.7319 3.7896 12.7319 4.21171 12.4716 4.47206L4.47157 12.4721C4.21122 12.7324 3.78911 12.7324 3.52876 12.4721C3.26841 12.2117 3.26841 11.7896 3.52876 11.5292L11.5288 3.52925C11.7891 3.2689 12.2112 3.2689 12.4716 3.52925Z" fill="#061938"/>
        <path fill-rule="evenodd" clip-rule="evenodd" d="M3.52876 3.52925C3.78911 3.2689 4.21122 3.2689 4.47157 3.52925L12.4716 11.5292C12.7319 11.7896 12.7319 12.2117 12.4716 12.4721C12.2112 12.7324 11.7891 12.7324 11.5288 12.4721L3.52876 4.47206C3.26841 4.21171 3.26841 3.7896 3.52876 3.52925Z" fill="#061938"/>
    </mask>
    <g mask="url(#mask0_904_1814)">
        <rect width="16" height="16" fill="#061938"/>
    </g>
</svg>
