<svg width="24" height="24" viewBox="0 0 24 24" fill="none" xmlns="http://www.w3.org/2000/svg">
<rect x="0.5" y="0.5" width="23" height="23" rx="5.5" stroke="#C1C7D0"/>
<mask id="mask0_1026_3290" style="mask-type:alpha" maskUnits="userSpaceOnUse" x="7" y="7" width="10" height="10">
<path fill-rule="evenodd" clip-rule="evenodd" d="M16.4711 7.52925C16.7314 7.7896 16.7314 8.21171 16.4711 8.47206L8.47108 16.4721C8.21073 16.7324 7.78862 16.7324 7.52827 16.4721C7.26792 16.2117 7.26792 15.7896 7.52827 15.5292L15.5283 7.52925C15.7886 7.2689 16.2107 7.2689 16.4711 7.52925Z" fill="#061938"/>
<path fill-rule="evenodd" clip-rule="evenodd" d="M7.52827 7.52925C7.78862 7.2689 8.21073 7.2689 8.47108 7.52925L16.4711 15.5292C16.7314 15.7896 16.7314 16.2117 16.4711 16.4721C16.2107 16.7324 15.7886 16.7324 15.5283 16.4721L7.52827 8.47206C7.26792 8.21171 7.26792 7.7896 7.52827 7.52925Z" fill="#061938"/>
</mask>
<g mask="url(#mask0_1026_3290)">
<rect x="4" y="4" width="16" height="16" fill="#061938"/>
</g>
</svg>
