<svg width="88" height="32" viewBox="0 0 88 32" fill="none" xmlns="http://www.w3.org/2000/svg">
<mask id="mask0_235_747" style="mask-type:alpha" maskUnits="userSpaceOnUse" x="1" y="1" width="30" height="30">
<path fill-rule="evenodd" clip-rule="evenodd" d="M9.3335 4.00004C6.38798 4.00004 4.00016 6.38785 4.00016 9.33337V22.6667C4.00016 25.6122 6.38798 28 9.3335 28H22.6668C25.6123 28 28.0002 25.6122 28.0002 22.6667V9.33337C28.0002 6.38785 25.6123 4.00004 22.6668 4.00004H9.3335ZM1.3335 9.33337C1.3335 4.9151 4.91522 1.33337 9.3335 1.33337H22.6668C27.0851 1.33337 30.6668 4.9151 30.6668 9.33337V22.6667C30.6668 27.085 27.0851 30.6667 22.6668 30.6667H9.3335C4.91522 30.6667 1.3335 27.085 1.3335 22.6667V9.33337Z" fill="#061938"/>
<path fill-rule="evenodd" clip-rule="evenodd" d="M16.6445 11.9856C15.8123 11.8622 14.9623 12.0043 14.2155 12.3918C13.4687 12.7793 12.8631 13.3924 12.4848 14.1439C12.1066 14.8955 11.9749 15.7471 12.1086 16.5778C12.2423 17.4084 12.6344 18.1758 13.2294 18.7707C13.8243 19.3657 14.5916 19.7578 15.4223 19.8915C16.253 20.0252 17.1046 19.8935 17.8561 19.5152C18.6077 19.137 19.2208 18.5314 19.6083 17.7846C19.9958 17.0378 20.1379 16.1878 20.0145 15.3556C19.8886 14.5067 19.4931 13.7207 18.8862 13.1139C18.2794 12.507 17.4934 12.1115 16.6445 11.9856ZM12.9873 10.0248C14.232 9.37899 15.6486 9.14207 17.0357 9.34775C18.4505 9.55756 19.7604 10.2169 20.7718 11.2283C21.7832 12.2397 22.4425 13.5495 22.6523 14.9644C22.858 16.3515 22.6211 17.7681 21.9753 19.0128C21.3294 20.2574 20.3076 21.2668 19.0551 21.8972C17.8025 22.5276 16.3831 22.7471 14.9987 22.5243C13.6142 22.3015 12.3353 21.6479 11.3437 20.6564C10.3522 19.6648 9.69856 18.3859 9.47579 17.0014C9.25302 15.617 9.47245 14.1976 10.1029 12.945C10.7333 11.6925 11.7427 10.6707 12.9873 10.0248Z" fill="#061938"/>
</mask>
<g mask="url(#mask0_235_747)">
<rect width="32" height="32" fill="url(#paint0_linear_235_747)"/>
</g>
<g clip-path="url(#clip0_235_747)">
<mask id="mask1_235_747" style="mask-type:alpha" maskUnits="userSpaceOnUse" x="56" y="2" width="33" height="28">
<path d="M67.0664 29.2C63.5998 29.2 59.9998 28.2666 56.7998 26.4C56.2664 26.1333 55.9998 25.4666 56.1331 24.9333C56.2664 24.4 56.7998 24 57.3331 24C59.5998 24.1333 61.8664 23.6 63.8664 22.6666C58.9331 19.6 57.5998 15.3333 57.4664 12C57.3331 8.13331 58.6664 4.93331 58.7998 4.79998C58.9331 4.39998 59.3331 3.99998 59.8664 3.99998C60.3998 3.99998 60.7998 4.13331 61.0664 4.53331C63.3331 7.73331 66.7998 9.73331 70.6664 9.99998C70.6664 7.86664 71.5998 5.86664 73.1998 4.39998C75.9998 1.99998 80.1331 1.99998 82.9331 4.39998C83.9998 3.99998 85.0664 3.46664 85.9998 2.79998C86.3998 2.53331 87.0664 2.53331 87.4664 2.79998C87.8664 3.06664 88.1331 3.73331 87.9998 4.26664C87.5998 6.13331 86.6664 7.86664 85.3331 9.33331C85.3331 9.59998 85.3331 9.73331 85.3331 9.99998C85.3331 17.3333 82.1331 23.4666 76.3998 26.6666C73.5998 28.4 70.3998 29.2 67.0664 29.2ZM62.6664 26C67.0664 27.0666 71.4664 26.5333 75.1998 24.4C79.9998 21.6 82.7998 16.2666 82.7998 9.99998C82.7998 9.73331 82.7998 9.46664 82.6664 9.19998C82.5331 8.79998 82.6664 8.26664 83.0664 7.99998C83.3331 7.73331 83.5998 7.33331 83.8664 7.06664C83.5998 7.19998 83.1998 7.33331 82.9331 7.33331C82.3998 7.46664 81.8664 7.33331 81.5998 6.93331C79.8664 5.06664 76.9331 4.79998 75.0664 6.53331C73.8664 7.33331 73.3331 8.66664 73.3331 9.99998V11.3333C73.3331 12 72.7998 12.6666 71.9998 12.6666C67.5998 12.8 63.4664 11.0666 60.5331 7.99998C59.7331 11.4666 59.4664 18 67.1998 21.3333C67.5998 21.6 67.9998 22 67.9998 22.5333C67.9998 23.0666 67.8664 23.4666 67.4664 23.7333C65.8664 24.8 64.2664 25.6 62.6664 26Z" fill="#061938"/>
</mask>
<g mask="url(#mask1_235_747)">
<rect x="56" width="32" height="32" fill="url(#paint1_linear_235_747)"/>
</g>
</g>
<defs>
<linearGradient id="paint0_linear_235_747" x1="0" y1="0" x2="32" y2="32" gradientUnits="userSpaceOnUse">
<stop stop-color="#061938"/>
<stop offset="1" stop-color="#0065FF"/>
</linearGradient>
<linearGradient id="paint1_linear_235_747" x1="56" y1="0" x2="88" y2="32" gradientUnits="userSpaceOnUse">
<stop stop-color="#061938"/>
<stop offset="1" stop-color="#0065FF"/>
</linearGradient>
<clipPath id="clip0_235_747">
<rect width="32" height="32" fill="white" transform="translate(56)"/>
</clipPath>
</defs>
</svg>
