<svg width="32" height="32" viewBox="0 0 32 32" fill="none" xmlns="http://www.w3.org/2000/svg">
    <mask id="mask0_235_748" style="mask-type:alpha" maskUnits="userSpaceOnUse" x="1" y="1" width="30" height="30">
        <path fill-rule="evenodd" clip-rule="evenodd"
              d="M9.3335 4.00004C6.38798 4.00004 4.00016 6.38786 4.00016 9.33337V22.6667C4.00016 25.6122 6.38798 28 9.3335 28H22.6668C25.6123 28 28.0002 25.6122 28.0002 22.6667V9.33337C28.0002 6.38786 25.6123 4.00004 22.6668 4.00004H9.3335ZM1.3335 9.33337C1.3335 4.9151 4.91522 1.33337 9.3335 1.33337H22.6668C27.0851 1.33337 30.6668 4.9151 30.6668 9.33337V22.6667C30.6668 27.085 27.0851 30.6667 22.6668 30.6667H9.3335C4.91522 30.6667 1.3335 27.085 1.3335 22.6667V9.33337Z"
              fill="#061938"/>
        <path fill-rule="evenodd" clip-rule="evenodd"
              d="M16.6445 11.9856C15.8123 11.8622 14.9623 12.0043 14.2155 12.3918C13.4687 12.7793 12.8631 13.3924 12.4848 14.1439C12.1066 14.8955 11.9749 15.7471 12.1086 16.5778C12.2423 17.4084 12.6344 18.1758 13.2294 18.7707C13.8243 19.3657 14.5916 19.7578 15.4223 19.8915C16.253 20.0252 17.1046 19.8935 17.8561 19.5152C18.6077 19.137 19.2208 18.5314 19.6083 17.7846C19.9958 17.0378 20.1379 16.1878 20.0145 15.3556C19.8886 14.5067 19.4931 13.7207 18.8862 13.1139C18.2794 12.507 17.4934 12.1115 16.6445 11.9856ZM12.9873 10.0248C14.232 9.37899 15.6486 9.14207 17.0357 9.34775C18.4505 9.55756 19.7604 10.2169 20.7718 11.2283C21.7832 12.2397 22.4425 13.5495 22.6523 14.9644C22.858 16.3515 22.6211 17.7681 21.9753 19.0128C21.3294 20.2574 20.3076 21.2668 19.0551 21.8972C17.8025 22.5276 16.3831 22.7471 14.9987 22.5243C13.6142 22.3015 12.3353 21.6479 11.3437 20.6564C10.3522 19.6648 9.69856 18.3859 9.47579 17.0014C9.25302 15.617 9.47245 14.1976 10.1029 12.945C10.7333 11.6925 11.7427 10.6707 12.9873 10.0248Z"
              fill="#061938"/>
    </mask>
    <g mask="url(#mask0_235_748)">
        <rect width="32" height="32" fill="url(#paint0_linear_235_748)"/>
    </g>
    <defs>
        <linearGradient id="paint0_linear_235_748" x1="0" y1="0" x2="32" y2="32" gradientUnits="userSpaceOnUse">
            <stop stop-color="#061938"/>
            <stop offset="1" stop-color="#0065FF"/>
        </linearGradient>
    </defs>
</svg>