<svg width="25" height="25" viewBox="0 0 25 25" fill="none" xmlns="http://www.w3.org/2000/svg">
<path d="M13.7317 2.84375H5.84277C5.29049 2.84375 4.84277 3.29147 4.84277 3.84375V21.8437C4.84277 22.396 5.29049 22.8438 5.84277 22.8438H19.8428C20.3951 22.8438 20.8428 22.396 20.8428 21.8437V8.10691M13.7317 2.84375L20.8428 8.10691M13.7317 2.84375V7.10691C13.7317 7.65919 14.1794 8.10691 14.7317 8.10691H20.8428" stroke="#97A0AF" stroke-width="2" stroke-linejoin="round"/>
<path d="M15.4717 19.8441V15.4805H18.3609V16.2411H16.3943V17.2809H18.1691V18.0415H16.3943V19.8441H15.4717Z" fill="#97A0AF"/>
<path d="M12.6533 19.8441H11.1064V15.4805H12.6661C13.105 15.4805 13.4829 15.5678 13.7996 15.7425C14.1164 15.9158 14.36 16.1651 14.5305 16.4904C14.7023 16.8157 14.7883 17.2049 14.7883 17.658C14.7883 18.1126 14.7023 18.5032 14.5305 18.8299C14.36 19.1566 14.115 19.4073 13.7954 19.582C13.4772 19.7567 13.0965 19.8441 12.6533 19.8441ZM12.029 19.0536H12.615C12.8877 19.0536 13.1171 19.0053 13.3032 18.9087C13.4907 18.8107 13.6313 18.6594 13.7251 18.4549C13.8202 18.2489 13.8678 17.9833 13.8678 17.658C13.8678 17.3356 13.8202 17.0721 13.7251 16.8675C13.6313 16.663 13.4914 16.5124 13.3053 16.4158C13.1192 16.3192 12.8898 16.271 12.6171 16.271H12.029V19.0536Z" fill="#97A0AF"/>
<path d="M7.22168 19.8441V15.4805H8.94327C9.27424 15.4805 9.5562 15.5437 9.78915 15.6701C10.0221 15.7951 10.1997 15.9691 10.3218 16.1921C10.4454 16.4137 10.5072 16.6694 10.5072 16.9592C10.5072 17.2489 10.4447 17.5046 10.3197 17.7262C10.1947 17.9478 10.0136 18.1204 9.77637 18.244C9.54057 18.3675 9.25506 18.4293 8.91983 18.4293H7.82253V17.69H8.77069C8.94824 17.69 9.09455 17.6594 9.20961 17.5984C9.32608 17.5359 9.41273 17.4499 9.46955 17.3406C9.52779 17.2298 9.55691 17.1026 9.55691 16.9592C9.55691 16.8143 9.52779 16.6879 9.46955 16.5799C9.41273 16.4705 9.32608 16.386 9.20961 16.3263C9.09313 16.2653 8.9454 16.2347 8.76642 16.2347H8.14426V19.8441H7.22168Z" fill="#97A0AF"/>
</svg>
