<svg width="32" height="32" viewBox="0 0 32 32" fill="none" xmlns="http://www.w3.org/2000/svg">
    <g clip-path="url(#clip0_235_749)">
        <mask id="mask0_235_749" style="mask-type:alpha" maskUnits="userSpaceOnUse" x="0" y="2" width="33" height="28">
            <path d="M11.0664 29.2C7.59977 29.2 3.99977 28.2666 0.799766 26.4C0.266432 26.1333 -0.000234373 25.4666 0.133099 24.9333C0.266432 24.4 0.799766 24 1.3331 24C3.59977 24.1333 5.86643 23.6 7.86643 22.6666C2.9331 19.6 1.59977 15.3333 1.46643 12C1.3331 8.13331 2.66643 4.93331 2.79977 4.79998C2.9331 4.39998 3.3331 3.99998 3.86643 3.99998C4.39977 3.99998 4.79977 4.13331 5.06643 4.53331C7.3331 7.73331 10.7998 9.73331 14.6664 9.99998C14.6664 7.86664 15.5998 5.86664 17.1998 4.39998C19.9998 1.99998 24.1331 1.99998 26.9331 4.39998C27.9998 3.99998 29.0664 3.46664 29.9998 2.79998C30.3998 2.53331 31.0664 2.53331 31.4664 2.79998C31.8664 3.06664 32.1331 3.73331 31.9998 4.26664C31.5998 6.13331 30.6664 7.86664 29.3331 9.33331C29.3331 9.59998 29.3331 9.73331 29.3331 9.99998C29.3331 17.3333 26.1331 23.4666 20.3998 26.6666C17.5998 28.4 14.3998 29.2 11.0664 29.2ZM6.66643 26C11.0664 27.0666 15.4664 26.5333 19.1998 24.4C23.9998 21.6 26.7998 16.2666 26.7998 9.99998C26.7998 9.73331 26.7998 9.46664 26.6664 9.19998C26.5331 8.79998 26.6664 8.26664 27.0664 7.99998C27.3331 7.73331 27.5998 7.33331 27.8664 7.06664C27.5998 7.19998 27.1998 7.33331 26.9331 7.33331C26.3998 7.46664 25.8664 7.33331 25.5998 6.93331C23.8664 5.06664 20.9331 4.79998 19.0664 6.53331C17.8664 7.33331 17.3331 8.66664 17.3331 9.99998V11.3333C17.3331 12 16.7998 12.6666 15.9998 12.6666C11.5998 12.8 7.46643 11.0666 4.5331 7.99998C3.7331 11.4666 3.46643 18 11.1998 21.3333C11.5998 21.6 11.9998 22 11.9998 22.5333C11.9998 23.0666 11.8664 23.4666 11.4664 23.7333C9.86643 24.8 8.26643 25.6 6.66643 26Z"
                  fill="#061938"/>
        </mask>
        <g mask="url(#mask0_235_749)">
            <rect width="32" height="32" fill="url(#paint0_linear_235_749)"/>
        </g>
    </g>
    <defs>
        <linearGradient id="paint0_linear_235_749" x1="0" y1="0" x2="32" y2="32" gradientUnits="userSpaceOnUse">
            <stop stop-color="#061938"/>
            <stop offset="1" stop-color="#0065FF"/>
        </linearGradient>
        <clipPath id="clip0_235_749">
            <rect width="32" height="32" fill="white"/>
        </clipPath>
    </defs>
</svg>